<svg id="Layer_1" data-name="Layer 1" xmlns="http://www.w3.org/2000/svg" viewBox="0 0 1468.13 1428.57">
  <defs>
    <style>
      .cls-1, .cls-5 {
        fill: #fdd089;
      }

      .cls-2 {
        fill: #faad79;
      }

      .cls-2, .cls-5 {
        opacity: 0.7;
      }

      .cls-3 {
        fill: #fc355a;
      }

      .cls-4 {
        fill: #fc5373;
      }
    </style>
  </defs>
  <title>background</title>
  <path class="cls-1" d="M833,126.39" transform="translate(16.69 291)"/>
  <path class="cls-2" d="M1436.86,804.48c-3.95-31.28-9.29-62.26-13.81-93.43q-7.33-50.56-13.45-101.4c-14.77-122.65-26.18-246.29-28.9-370.28-1.32-60.31-.71-120.78,3.22-181,1.36-20.84,3.1-41.65,5.38-62.38L-13-202.63l93.3,456.47,1371.13,661C1446.1,878.17,1441.52,841.31,1436.86,804.48Z" transform="translate(16.69 291)"/>
  <path class="cls-3" d="M1346.24,715.31-10.6-291c3.46,58,9.45,115.74,11.89,173.84C2.55-87,2.49-56.83,3.13-26.68,3.8,4.87,4.68,36.42,5.52,68c1.69,63.45,3.57,127,1.89,190.46A1844.22,1844.22,0,0,1-7.07,446.61c-3.64,28.07-3.28,57.3-4.27,85.69-.66,18.79-1.43,37.6-2.64,56.36l.25,12.13L1358,1137.57Z" transform="translate(16.69 291)"/>
  <path class="cls-4" d="M-7.15,43c1.27,30.35,2.76,60.67,4.21,91,2.91,61,6,122.1,5.49,183.24C2.07,373.65-1.1,430-7.18,485.93L1439.57,826q-1.35-10.74-2.71-21.47c-3.95-31.28-9.29-62.26-13.81-93.43q-7.33-50.56-13.45-101.4c-6.54-54.33-12.42-108.86-17.18-163.52L-10.32-37.17C-8.8-10.47-8.27,16.31-7.15,43Z" transform="translate(16.69 291)"/>
  <path class="cls-5" d="M1380.7,239.37q-.39-17.87-.54-35.74L-16.69-114.3c2.32,23.4,4.47,46.82,6,70.32,1.85,29,2.35,58,3.57,87q.81,19.27,1.72,38.53L1399.3,715.13,1407,587.92C1393.52,472.4,1383.26,356,1380.7,239.37Z" transform="translate(16.69 291)"/>
</svg>
