<?xml version="1.0" ?><svg height="24px" version="1.1" viewBox="0 0 24 24" width="24px" xmlns="http://www.w3.org/2000/svg" xmlns:sketch="http://www.bohemiancoding.com/sketch/ns" xmlns:xlink="http://www.w3.org/1999/xlink"><title/><desc/><defs/><g fill="none" fill-rule="evenodd" id="miu" stroke="none" stroke-width="1"><g id="Artboard-1" transform="translate(-252.000000, -407.000000)"><g id="slice" transform="translate(215.000000, 119.000000)"/><path d="M261.796254,421.111931 L261.746083,423.655273 L264.201739,422.991302 L273.285366,411.364791 L270.879881,409.48542 L261.796254,421.111931 Z M273.247851,408.107306 C272.839321,407.788126 271.819566,408.282677 271.819566,408.282677 L271.193109,409.084505 L273.598594,410.963876 L274.225051,410.162048 C274.225051,410.162048 274.460297,409.054572 274.04968,408.733763 L273.247851,408.107306 Z M253,429.97959 L272,429.97959 L272,414.97959 L270,417.5 L270,427.97959 L255,427.97959 L255,412.97959 L266.5,412.97959 L268,410.97959 L253,410.97959 L253,429.97959 Z" fill="#000000" id="common-new-edit-compose-glyph"/></g></g></svg>