
<svg xmlns="http://www.w3.org/2000/svg" version="1.1" xmlns:xlink="http://www.w3.org/1999/xlink" preserveAspectRatio="none" x="0px" y="0px" width="500px" height="350px" viewBox="0 0 500 350">
<defs>
<g id="Layer0_0_FILL">
<path fill="#000000" stroke="none" d="
M 500 175.95
L 499.9 171.5
Q 498.8 137.05 474 112.35 448.1 86.35 411.3 86.35 374.4 86.35 348.5 112.35 337 123.75 330.6 137.5 324.15 123.95 312.7 112.5 287.25 87 251.25 86.45
L 249.95 86.45
Q 213.25 86.45 187.2 112.5 181.75 117.95 177.4 123.95
L 177.4 0 161.3 0 161.3 174.75 161.25 174.75 161.25 176.4
Q 160.75 205.5 140 226.3 118.7 247.5 88.6 247.5 58.5 247.5 37.25 226.3 17.25 206.35 16.1 178.5
L 16 174.05
Q 16 171.95 16.1 170.95
L 16.1 170.7
Q 17.55 143.35 37.25 123.6 58.55 102.35 88.6 102.35 111.35 102.35 129.1 114.5
L 129.1 135.35 128.7 135
Q 112.1 118.45 88.65 118.45 65.85 118.45 49.6 134.1
L 49.5 134.15 48.65 135
Q 33.55 150.15 32.25 171.05
L 32.15 175.2 32.2 175.55 32.25 177.65
Q 33.15 199.3 48.6 214.8
L 48.65 214.9 48.65 214.85 48.75 214.95 48.8 215.05
Q 65.3 231.45 88.65 231.45 112.05 231.45 128.6 214.95
L 129.55 214.05
Q 144.75 198.25 145.2 176.25
L 145.2 0 129.1 0 129.1 95.65
Q 110.8 86.25 88.65 86.25 51.9 86.25 25.95 112.2 1.45 136.65 0 170.7
L 0 178.5
Q 1.2 213 25.95 237.65 51.85 263.65 88.65 263.65 125.5 263.65 151.45 237.65 162.95 226.15 169.4 212.5 175.8 226.1 187.25 237.55 212.7 263 248.7 263.55
L 249.95 263.55
Q 286.65 263.55 312.75 237.55 318.25 231.95 322.55 226.05
L 322.55 350 338.65 350 338.65 175.25 338.7 175.25 338.7 173.65
Q 339.25 144.4 359.95 123.7 381.25 102.5 411.35 102.5 441.45 102.5 462.7 123.7 482.65 143.75 483.85 171.5
L 483.95 175.95
Q 483.95 178.05 483.85 179.1
L 483.8 179.3
Q 482.45 206.65 462.7 226.4 441.4 247.65 411.35 247.65 388.6 247.65 370.85 235.5
L 370.85 214.65 371.25 215.05
Q 387.9 231.55 411.3 231.55 434.1 231.55 450.35 215.95
L 450.4 215.85 451.3 215
Q 466.45 199.9 467.7 178.95
L 467.8 174.8 467.75 174.45 467.7 172.35
Q 466.8 150.7 451.3 135.2
L 451.3 135.15 451.15 135
Q 434.7 118.55 411.3 118.55 387.95 118.55 371.3 135.05
L 370.45 135.9 370.35 135.95
Q 355.2 151.8 354.75 173.75
L 354.75 350 370.85 350 370.85 254.35
Q 389.05 263.75 411.3 263.75 448.05 263.75 474 237.8 498.45 213.4 499.9 179.3
L 499.9 179.1
Q 500 178.05 500 175.95
M 381.9 147.25
L 382.8 146.4 382.85 146.4
Q 394.6 134.65 411.3 134.65 427.6 134.65 439.25 145.85
L 439.8 146.5 439.85 146.55 439.9 146.55 440 146.65 439.95 146.65
Q 450.9 157.6 451.6 173
L 451.65 174.85 451.7 175.15 451.6 178.9
Q 450.35 193.1 439.9 203.55
L 439.9 203.5 439.25 204.25 439.15 204.3 438.75 204.7 439 204.5
Q 427.45 215.55 411.3 215.45 394.6 215.45 382.7 203.65 371.2 192.15 370.85 176.1
L 370.85 174
Q 371.15 158.8 381.5 147.65
L 381.6 147.6 381.9 147.3 381.9 147.25
M 60.05 146.45
L 60.05 146.5 60.8 145.7
Q 60.8 145.55 60.95 145.55
L 61.05 145.45 61.05 145.4
Q 61.1 145.35 61.15 145.3 72.65 134.5 88.65 134.55 105.4 134.55 117.25 146.35 128.75 157.85 129.1 173.9
L 129.1 176
Q 128.7 191.3 118.45 202.35
L 118.35 202.45 118.15 202.6 118.05 202.7 118.05 202.75 117.8 202.95 117.15 203.6 117.1 203.6
Q 105.35 215.35 88.65 215.35 72.35 215.35 60.7 204.15
L 60.3 203.75 60.15 203.5 60.1 203.45 60.05 203.45 59.95 203.4 60 203.4
Q 48.95 192.25 48.35 177
L 48.3 175.15 48.25 174.85 48.35 171.1
Q 49.6 156.9 60.05 146.45
M 177.4 177.2
L 177.4 172.4
Q 178.4 144.1 198.65 123.9 219.9 102.6 249.95 102.6
L 251.25 102.6
Q 280.5 103.05 301.3 123.85
L 301.3 123.9
Q 321.7 144.2 322.6 172.85
L 322.55 177.6
Q 321.55 206 301.3 226.1 280.05 247.45 249.95 247.45
L 248.7 247.45
Q 219.45 246.95 198.65 226.15
L 198.65 226.1
Q 178.25 205.85 177.4 177.2
M 210.95 133.95
L 210 134.9
Q 194.8 150 193.55 170.95
L 193.5 178.4
Q 194.65 199.85 209.95 215.15 226.1 231.2 248.7 231.65
L 249.95 231.7
Q 272.75 231.7 289 216.05
L 289.1 216 289.95 215.1
Q 305.15 200 306.4 179.1
L 306.45 171.6
Q 305.3 150.15 290 134.85 273.9 118.8 251.25 118.35
L 249.95 118.3
Q 227.1 118.3 210.95 133.95
M 221.35 146.3
L 221.35 146.35 222.5 145.15 222.25 145.35
Q 233.7 134.4 249.95 134.4
L 251.25 134.45
Q 267.25 134.9 278.6 146.2 290.35 158.05 290.35 174.8
L 290.3 179.05
Q 289.05 193.25 278.6 203.7
L 278.6 203.65 277.8 204.45
Q 277.8 204.6 277.7 204.6
L 277.45 204.85 277.7 204.65
Q 266.1 215.7 249.95 215.6
L 248.7 215.55
Q 232.75 215.1 221.35 203.8 209.55 191.95 209.55 175.2
L 209.55 175 209.6 175 209.55 174.7 209.65 171
Q 210.9 156.75 221.35 146.3 Z"/>
</g>
</defs>

<g transform="matrix( 1, 0, 0, 1, 0,0) ">
<use xlink:href="#Layer0_0_FILL"/>
</g>
</svg>
