
<svg xmlns="http://www.w3.org/2000/svg" version="1.1" xmlns:xlink="http://www.w3.org/1999/xlink" preserveAspectRatio="none" x="0px" y="0px" width="600px" height="380px" viewBox="0 0 600 380">
<defs>
<linearGradient id="Gradient_1" gradientUnits="userSpaceOnUse" x1="-7.105427357601002e-15" y1="90.05" x2="122.6" y2="90.05" spreadMethod="pad">
<stop  offset="0%" stop-color="#FA6E0C"/>

<stop  offset="100%" stop-color="#F7540A"/>
</linearGradient>

<linearGradient id="Gradient_2" gradientUnits="userSpaceOnUse" x1="46.47499999999998" y1="141.55" x2="209.925" y2="141.55" spreadMethod="pad">
<stop  offset="0%" stop-color="#F7540A"/>

<stop  offset="100%" stop-color="#FA6E0C"/>
</linearGradient>

<filter id="Filter_1" x="-20%" y="-20%" width="140%" height="140%" color-interpolation-filters="sRGB">
<feColorMatrix in="SourceGraphic" type="matrix" values="0 0 0 0 0.996078431372549 0 0 0 0 0.5529411764705883 0 0 0 0 0.26666666666666666 0 0 0 1 0" result="result1"/>
</filter>

<g id="Layer5_0_FILL">
<path fill="#FE8D44" stroke="none" d="
M 558.5 147.9
Q 558.5 145.5 557.3 143.45 556.05 141.5 554.1 140.25
L 481.2 98.1
Q 479.15 96.9 476.8 96.9 474.45 96.9 472.45 98.1
L 399.45 140.25
Q 397.5 141.5 396.25 143.45 395.1 145.5 395.1 147.9
L 395.1 347.45
Q 395.1 349.85 396.25 351.9 397.5 354.05 399.65 355.25
L 443 379.35
Q 445.25 380.65 447.35 379.25 449.55 378 449.55 375.55
L 449.55 274
Q 449.55 272.25 451.1 271.3 452.65 270.4 454.2 271.3
L 472.45 281.8
Q 474.45 283.05 476.8 283.05 479.15 283.05 481.2 281.8
L 554.1 239.7
Q 556.05 238.45 557.3 236.55 558.5 234.45 558.5 232.15
L 558.5 147.9
M 503.15 173.65
Q 504.15 174.25 504.15 175.6
L 504.15 204.5
Q 504.15 205.7 503.15 206.4
L 478 220.9
Q 477 221.55 475.85 220.9
L 450.85 206.4
Q 449.8 205.7 449.8 204.5
L 449.8 175.6
Q 449.8 174.25 450.85 173.65
L 475.85 159.2
Q 477 158.65 478 159.2
L 503.15 173.65 Z"/>
</g>

<g id="__0_Layer3_0_FILL">
<path fill="#000000" stroke="none" d="
M -5.25 -125.3
L -4.55 -124.05 -4.55 -124.1 -5.25 -125.3 Z"/>

<path fill="url(#Gradient_1)" stroke="none" d="
M 100.45 38.35
L 100.4 38.35 122.55 0 56.15 0.05
Q 50.55 0.05 47.75 4.9
L 1.35 85.2
Q -1.4 90.05 1.4 94.95
L 47.75 175.25
Q 49.05 177.5 51.3 178.9 53.0853515625 179.891796875 55.1 180.05 55.6130859375 180.1103515625 56.15 180.1
L 75.35 180.1 98.7 139.75
Q 98.85078125 139.4890625 99 139.25
L 73.45 94.95
Q 70.65 90.05 73.4 85.2
L 100.45 38.35 Z"/>
</g>

<g id="Layer1_0_FILL">
<path fill="url(#Gradient_2)" stroke="none" d="
M 209.95 32.55
Q 209.95 30.1 208.75 28.05 207.5 25.95 205.4 24.75
L 162.05 0.65
Q 159.75 -0.7 157.7 0.7 155.45 2 155.45 4.45
L 155.45 106.05
Q 155.45 107.8 153.9 108.7 152.35 109.6 150.85 108.7
L 132.6 98.2
Q 130.6 96.95 128.2 96.95 125.85 96.95 123.8 98.2
L 50.9 140.3
Q 48.95 141.5 47.75 143.4 46.5 145.55 46.5 147.85
L 46.5 232.1
Q 46.5 234.45 47.75 236.5 48.95 238.5 50.9 239.75
L 123.8 281.9
Q 125.85 283.1 128.2 283.1 130.6 283.1 132.6 281.9
L 205.55 239.75
Q 207.5 238.5 208.75 236.5 209.95 234.45 209.95 232.1
L 209.95 32.55
M 100.85 175.5
Q 100.85 174.25 101.9 173.6
L 127 159.15
Q 128.05 158.5 129.15 159.15
L 154.2 173.6
Q 155.25 174.25 155.25 175.5
L 155.25 204.4
Q 155.25 205.75 154.2 206.35
L 129.15 220.85
Q 128.05 221.4 127 220.85
L 101.9 206.35
Q 100.85 205.75 100.85 204.4
L 100.85 175.5 Z"/>
</g>
</defs>

<g transform="matrix( 1, 0, 0, 1, 0,0) ">
<use xlink:href="#Layer5_0_FILL"/>
</g>

<g transform="matrix( 0.9078369140625, 0, 0, 0.90863037109375, 285.45,95.95) ">
<g transform="matrix( 1, 0, 0, 1, -65.4,75.65) "/>
</g>

<g transform="matrix( 0.785430908203125, 0.4538421630859375, -0.453460693359375, 0.7861175537109375, 261.75,72.7) ">
<g transform="matrix( -0.9999847412109375, 0, 0, -0.9999847412109375, 208.1,180.1) ">
<g transform="matrix( 1, 0, 0, 1, 0,0) ">
<use filter="url(#Filter_1)" xlink:href="#__0_Layer3_0_FILL"/>
</g>
</g>

<g transform="matrix( 0.9999847412109375, 0, 0, 0.9999847412109375, 0,0.05) ">
<g transform="matrix( 1, 0, 0, 1, 0,0) ">
<use xlink:href="#__0_Layer3_0_FILL"/>
</g>
</g>
</g>

<g transform="matrix( 1, 0, 0, 1, 0,0) ">
<use xlink:href="#Layer1_0_FILL"/>
</g>
</svg>
