<?xml version="1.0" ?><svg style="enable-background:new 0 0 77.045 79.055;" version="1.1" viewBox="0 0 77.045 79.055" xml:space="preserve" xmlns="http://www.w3.org/2000/svg" xmlns:xlink="http://www.w3.org/1999/xlink"><g id="earphone"><path d="M67.851,53.341c-4.622-3.676-7.046-6.642-11.994-6.106s-6.556,3.29-10.907,2.572c-2.425-0.4-16.088-14.611-16.395-17.06   c-0.547-4.376,2.267-5.875,2.997-10.798c0.729-4.923-2.14-7.461-5.632-12.224C22.421,4.952,16.576-0.644,11.584,0.06   C6.804,0.734-0.064,3.172,0,15.228c0.051,9.575,51.743,63.37,61.335,63.797c12.045,0.537,14.749-6.23,15.61-10.981   C77.844,63.084,72.482,57.024,67.851,53.341z"/></g><g id="Слой_1"/></svg>