<?xml version="1.0" encoding="utf-8"?><svg id="logo-colored" image-rendering="auto" baseProfile="basic" version="1.1" x="0px" y="0px" width="550" height="400" xmlns="http://www.w3.org/2000/svg" xmlns:xlink="http://www.w3.org/1999/xlink"><g id="Scene-1" overflow="visible"><g id="composition" transform="translate(82.35 62.6)"><g mask="url(#mask_)" id="Layer1_0_FILL"><path fill="#F6A877" stroke="none" d="M171 15.4Q169.1 15.3 169.15 15.25 166.158 15.789 163.15 16.3 155.894 17.625 148.6 18.9 141.971 20.062 137.45 20.8 128.235 22.417 128 22.35 128.25 22.6 139.55 35.1L143.6 39.6Q147.188 38.997 151.8 38.2 159.1 36.95 166.4 35.65 168.684 35.224 171 34.8L171 15.4Z"/><path fill="#FE8C8B" stroke="none" d="M172.7 69.05Q171.4 67.6 171.5 67.6 170.95 67.2 170.35 66.85 168.45 65.55 166.5 64.15 160.45 59.95 154.35 55.7 150.55 53.05 147.6 50.95 146.25 49.95 145.15 49.2 137.5 43.75 137.35 43.55 137.35 43.95 136.55 60.7L135.6 78Q135.65 77.85 158.65 83.05L172.7 69.05Z"/><path fill="#F99E81" stroke="none" d="M167.45 65.95Q167.35 65.6 163.8 49.15L160.2 32.25Q160.2 32.4 136.65 33.3L126.75 50.45Q128.35 51.5 128.25 51.55 128.9 51.8 129.55 51.95 131.75 52.75 133.95 53.55 140.9 56.05 147.9 58.6 152.25 60.2 155.65 61.45 157.2 62.05 158.45 62.5 167.25 65.8 167.45 65.95Z"/><path fill="#F68A91" stroke="none" d="M162.6 94.25L163.55 76.95Q163.5 77.1 140.5 71.9L126.45 85.9Q127.75 87.35 127.65 87.35 128.2 87.75 128.8 88.1 130.7 89.4 132.65 90.8 138.7 95 144.8 99.25 148.6 101.9 151.55 104 152.9 105 154 105.75 161.65 111.2 161.8 111.4 161.8 111 162.6 94.25Z"/><path fill="#FC7F9E" stroke="none" d="M171.35 118.2Q171.15 117.9 163.5 102.95L155.65 87.5Q155.7 87.65 133.15 94.65L128 113.8Q129.85 114.4 129.8 114.45 130.45 114.55 131.15 114.55 133.4 114.7 135.8 114.95 143.15 115.55 150.6 116.2 155.15 116.6 158.8 116.9 160.45 117.15 161.8 117.25 171.1 118.1 171.35 118.2Z"/><path fill="#FA78A7" stroke="none" d="M162.05 127.15Q163.65 122.9 164.85 119.45 165.55 117.95 165.95 116.65 169.2 107.9 169.35 107.75 169 107.8 152.6 111.35L135.6 114.9Q135.8 114.85 136.7 138.45L153.9 148.4Q154.95 146.8 154.95 146.9 155.25 146.2 155.45 145.55 156.15 143.45 157.05 141.2 159.5 134.25 162.05 127.15Z"/><path fill="#EF6EBB" stroke="none" d="M156 126.5Q156.15 126.65 136.15 139.25L136.15 158.2 160.9 158.2 160.35 155.25Q160.95 155.15 161.55 155.05L161.55 132.7 156 126.5Z"/><path fill="#BE69DB" stroke="none" d="M161.4 173.7Q158.434 175.038 139.4 182.25L133.8 202.75Q135.55 203.3 135.5 203.35 136.25 203.45 137 203.4 139.1 203.5 141.6 203.65 148.9 203.85 156.35 204.15 157.9 204.25 159.35 204.4L165.5 181.2 161.95 173.4Q161.974 173.440 161.4 173.7Z"/><path fill="#DB69D6" stroke="none" d="M159.7 152.75Q158.9 152.85 158.25 153.1 156.15 153.6 153.75 154.05 146.6 155.75 139.35 157.4 137.8 157.7 136.4 157.95L136.45 181.95 138.7 184.7 139.4 182.25Q158.434 175.038 161.4 173.7L161.5 152.9Q159.65 152.85 159.7 152.75Z"/><path fill="#AB69DB" stroke="none" d="M128.25 207.2Q130.3 209.7 142.15 226.25L163.4 226.3Q163.45 224.5 163.55 224.5 163.45 223.8 163.2 223.05 162.75 221.05 162.25 218.6 160.55 211.5 158.95 204.2 158.65 202.7 158.4 201.25L134.35 201.3 127.8 206.7Q127.85 206.7 128.25 207.2Z"/><path fill="#9369DB" stroke="none" d="M155.25 222.5Q152.2 221.4 133.7 212.95L115.25 223.55Q116.1 225.15 116 225.2 116.45 225.75 117.05 226.3 118.45 227.75 120.1 229.65 125.1 234.95 130.15 240.45 131.15 241.6 132.1 242.75L152.9 230.65 155.85 222.75 155.25 222.5Z"/><path fill="#7F7DED" stroke="none" d="M149.35 236.1Q146.3 235 127.8 226.55L109.35 237.15Q110.2 238.75 110.1 238.8 110.55 239.35 111.15 239.9 112.55 241.35 114.2 243.25 119.2 248.55 124.25 254.05 125.25 255.2 126.2 256.35L147 244.25 149.95 236.35 149.35 236.1Z"/><path fill="#F5B171" stroke="none" d="M149.8 -5.45Q130.5 -12.45 130.25 -12.75 130.35 -12.4 133.9 4.1L137.45 20.8Q141.971 20.062 148.6 18.9 155.894 17.625 163.15 16.3L171 2.75Q169.4 1.75 169.45 1.7 159.65 -1.85 149.8 -5.45Z"/></g><mask id="mask_"><g><g id="du" transform="translate(77.95 65.65)" opacity=".58"><g id="du_1"><g><g id="Layer14_0_FILL"><path fill="#FFF" stroke="none" d="M59.5 -38.9L59.5 -31.5 59.55 68.65Q59.524 68.624 59.5 68.6L59.5 124.9Q59.5 124.975 59.5 125.05 59.5 139.8 53 151.85 49.05 159.15 42.75 165.45 26 182.15 2.35 182.15 -21.3 182.15 -38 165.45 -54.7 148.7 -54.7 125.05 -54.7 101.4 -38 84.65 -21.3 67.95 2.35 67.95 25.8 67.95 42.45 84.35 42.6 84.5 42.75 84.65 53.160 95.060 57.1 108.1L57.1 66.25Q50.175 59.739 42.45 55.2 24.55 44.7 2.3 44.7 -30.95 44.7 -54.45 68.2 -77.95 91.75 -77.95 125 -77.95 158.3 -54.45 181.8 -30.95 205.3 2.3 205.3 35.6 205.3 59.1 181.8 69.374 171.525 75.15 159.4L113.35 101.8 122.05 90.1Q124.831 86.868 126.85 84.85 143.55 68.15 167.2 68.15 180.85 68.15 191.3 73.1 204.65 79.4 215.95 94.9 221.2 102.15 223.15 114 224.35 121.45 224.1 127.85 223.85 135.05 221.65 142.4L245.4 106.25Q240.502 84.952 223.95 68.4 216.15 60.6 207.3 55.4 189.4 44.9 167.15 44.9 133.9 44.9 110.4 68.4 106.403 72.404 103.1 76.7 97.644 83.247 92.95 90.55L84.2 102.3 82.65 104.4 82.65 -31.5 82.65 -38.9 82.65 -65.65 59.5 -65.65 59.5 -38.9Z" fill-opacity="1"/></g></g></g></g></g></mask></g></g></svg>