
<svg xmlns="http://www.w3.org/2000/svg" version="1.1" xmlns:xlink="http://www.w3.org/1999/xlink" preserveAspectRatio="none" x="0px" y="0px" width="550px" height="400px" viewBox="0 0 550 400">
<defs>
<filter id="Filter_1" x="-20%" y="-20%" width="140%" height="140%" color-interpolation-filters="sRGB">
<feColorMatrix in="SourceGraphic" type="matrix" values="0 0 0 0 0.6705882352941176 0 0 0 0 0.6705882352941176 0 0 0 0 0.6705882352941176 0 0 0 1 0" result="result1"/>
</filter>

<filter id="Filter_2" x="-20%" y="-20%" width="140%" height="140%" color-interpolation-filters="sRGB">
<feColorMatrix in="SourceGraphic" type="matrix" values="0 0 0 0 0.8509803921568627 0 0 0 0 0 0 0 0 0 0.24313725490196078 0 0 0 1 0" result="result1"/>
</filter>

<g id="du3_0_Layer1_0_FILL">
<path fill="#FF3300" stroke="none" d="
M 59.5 -38.9
L 59.5 -31.5 59.55 68.65
Q 59.524609375 68.624609375 59.5 68.6
L 59.5 124.9
Q 59.5 124.975 59.5 125.05 59.5 139.8 53 151.85 49.05 159.15 42.75 165.45 26 182.15 2.35 182.15 -21.3 182.15 -38 165.45 -54.7 148.7 -54.7 125.05 -54.7 101.4 -38 84.65 -21.3 67.95 2.35 67.95 25.8 67.95 42.45 84.35 42.6 84.5 42.75 84.65 53.16015625 95.06015625 57.1 108.1
L 57.1 66.25
Q 50.175 59.7390625 42.45 55.2 24.55 44.7 2.3 44.7 -30.95 44.7 -54.45 68.2 -77.95 91.75 -77.95 125 -77.95 158.3 -54.45 181.8 -30.95 205.3 2.3 205.3 35.6 205.3 59.1 181.8 69.3744140625 171.5255859375 75.15 159.4
L 113.35 101.8 122.05 90.1
Q 124.831640625 86.868359375 126.85 84.85 143.55 68.15 167.2 68.15 180.85 68.15 191.3 73.1 204.65 79.4 215.95 94.9 221.2 102.15 223.15 114 224.35 121.45 224.1 127.85 223.85 135.05 221.65 142.4
L 245.4 106.25
Q 240.5025390625 84.9525390625 223.95 68.4 216.15 60.6 207.3 55.4 189.4 44.9 167.15 44.9 133.9 44.9 110.4 68.4 106.40390625 72.4044921875 103.1 76.7 97.6447265625 83.247265625 92.95 90.55
L 84.2 102.3 82.65 104.4 82.65 -31.5 82.65 -38.9 82.65 -65.65 59.5 -65.65 59.5 -38.9 Z"/>
</g>
</defs>

<g transform="matrix( -0.78924560546875, 0, 0, -0.78924560546875, 407.85,313.35) ">
<g transform="matrix( 1, 0, 0, 1, 0,0) ">
<use filter="url(#Filter_1)" xlink:href="#du3_0_Layer1_0_FILL"/>
</g>
</g>

<g transform="matrix( 0.78924560546875, 0, 0, 0.78924560546875, 144.15,115.8) ">
<g transform="matrix( 1, 0, 0, 1, 0,0) ">
<use filter="url(#Filter_2)" xlink:href="#du3_0_Layer1_0_FILL"/>
</g>
</g>
</svg>
