
<svg xmlns="http://www.w3.org/2000/svg" version="1.1" xmlns:xlink="http://www.w3.org/1999/xlink" preserveAspectRatio="none" x="0px" y="0px" width="500px" height="386px" viewBox="0 0 500 386">
<defs>
<linearGradient id="Gradient_1" gradientUnits="userSpaceOnUse" x1="-0.02499999999999858" y1="69.4" x2="44.725" y2="69.4" spreadMethod="pad">
<stop  offset="0%" stop-color="#000000" stop-opacity="0.11764705882352941"/>

<stop  offset="11.372549019607844%" stop-color="#000000" stop-opacity="0"/>
</linearGradient>

<linearGradient id="Gradient_2" gradientUnits="userSpaceOnUse" x1="-0.02499999999999858" y1="25.15" x2="44.725" y2="25.15" spreadMethod="pad">
<stop  offset="0%" stop-color="#000000" stop-opacity="0.11764705882352941"/>

<stop  offset="11.372549019607844%" stop-color="#000000" stop-opacity="0"/>
</linearGradient>

<g id="dop_0_Layer0_0_MEMBER_0_FILL">
<path fill="#CCCCCC" stroke="none" d="
M 391.1 162.45
Q 391.05 162.5 391 162.55 374.95 179.25 374.5 202.45 374.5 202.55 374.5 202.7 374.5 203.2 374.5 203.75
L 374.5 205.3
Q 374.5 306.4 374.5 407.5
L 391.5 407.5
Q 391.5 347.5 391.5 287.5 410.75 297.45 434.15 297.45 472.95 297.45 500.35 270.05 526.2 244.25 527.7 208.3 527.7 208.15 527.7 208.05 527.8 206.4 527.8 204.75 527.8 204.55 527.8 204.3 527.8 204.05 527.8 203.8 527.8 203.65 527.8 203.55 527.8 202.75 527.75 201.95 527.75 201.8 527.75 201.7 527.75 201.25 527.7 200.8 527.7 200.4 527.7 200.05 526.45 163.65 500.35 137.6 472.95 110.15 434.15 110.15 395.3 110.15 367.9 137.6 355.75 149.75 349 164.15 342.2 149.85 330.1 137.75 303.2 110.8 265.25 110.3 264.6 110.3 263.9 110.3 225.1 110.3 197.65 137.75 191.85 143.55 187.3 149.85 187.3 74.9 187.3 0
L 170.3 0
Q 170.3 47.15 170.3 94.3 170.3 121.95 170.3 149.6
L 170.3 180.5
Q 170.3 191.05 170.3 201.55
L 170.3 203.5 170.25 203.5
Q 170.25 203.6 170.25 203.7 170.25 203.75 170.25 203.8
L 170.25 204.8
Q 170.25 205 170.25 205.2 169.7 236 147.8 257.9 125.35 280.3 93.6 280.3 61.85 280.3 39.4 257.9 18.3 236.8 17.05 207.45 17.05 207.1 17.05 206.7 17 206.25 17 205.8 17 205.7 17 205.55 16.95 205.05 16.95 204.5 16.95 204.25 16.95 203.95 16.95 203.85 16.95 203.7 16.95 203.55 16.95 203.45 16.95 203.35 16.95 203.2 16.95 202.95 16.95 202.75 16.95 201.1 17.05 199.45 17.05 199.35 17.1 199.2 18.55 170.3 39.4 149.5 61.85 127.05 93.6 127.05 117.6 127.05 136.3 139.9 136.3 150.9 136.3 161.9 136.1 161.7 135.9 161.5 118.4 144.05 93.65 144.05 69.6 144.05 52.45 160.55 52.4 160.6 52.35 160.65 51.9 161.1 51.45 161.55 35.45 177.5 34.1 199.6
L 34.1 199.7
Q 34.1 199.75 34.1 199.8
L 34.1 199.85
Q 34.1 199.9 34.1 199.95 34.1 200 34.1 200.05 34.1 200.1 34.1 200.2 34.1 200.4 34.1 200.6 34.1 201.05 34.05 201.55
L 34.05 201.4
Q 34 202.1 34 202.8
L 34 202.95
Q 34 203.05 34 203.2 34 203.4 34 203.6
L 34 203.7
Q 34 203.8 34 203.9
L 34 203.95
Q 34 204.15 34.05 204.35 34.05 204.45 34.05 204.55 34.1 205.5 34.1 206.5
L 34.1 206.55
Q 35.05 229.35 51.4 245.75
L 51.45 245.85 51.45 245.8
Q 51.5 245.85 51.55 245.9
L 51.6 246
Q 69 263.35 93.65 263.35 118.35 263.35 135.8 245.9 136.25 245.45 136.7 245.05 136.75 245 136.8 244.95 152.85 228.25 153.3 205.05 153.3 204.95 153.3 204.8 153.3 204.3 153.3 203.75
L 153.3 202.2
Q 153.3 101.1 153.3 0
L 136.3 0
Q 136.3 60 136.3 120 117.05 110.05 93.65 110.05 54.85 110.05 27.45 137.45 1.6 163.25 0.1 199.2 0.1 199.35 0.1 199.45 0 201.1 0 202.75 0 202.95 0 203.2 0 203.45 0 203.7 0 203.85 0 203.95 0 204.75 0.05 205.55 0.05 205.7 0.05 205.8 0.05 206.25 0.1 206.7 0.1 207.1 0.1 207.45 1.35 243.85 27.45 269.9 54.85 297.35 93.65 297.35 132.5 297.35 159.9 269.9 172.05 257.75 178.85 243.35 185.6 257.65 197.7 269.75 224.6 296.7 262.55 297.2 263.2 297.2 263.9 297.2 302.7 297.2 330.15 269.75 335.95 263.95 340.5 257.65 340.5 332.6 340.5 407.5
L 357.5 407.5
Q 357.5 360.35 357.5 313.2 357.5 285.55 357.5 257.9
L 357.5 227
Q 357.5 216.45 357.5 205.95
L 357.5 204 357.55 204
Q 357.55 203.9 357.55 203.8 357.55 203.75 357.55 203.7
L 357.55 202.7
Q 357.55 202.5 357.55 202.3 358.1 171.5 380 149.6 402.45 127.2 434.2 127.2 465.95 127.2 488.4 149.6 509.5 170.7 510.75 200.05 510.75 200.4 510.75 200.8 510.8 201.25 510.8 201.7 510.8 201.8 510.8 201.95 510.85 202.45 510.85 203 510.85 203.25 510.85 203.55 510.85 203.65 510.85 203.8 510.85 203.95 510.85 204.05 510.85 204.15 510.85 204.3 510.85 204.55 510.85 204.75 510.85 206.4 510.75 208.05 510.75 208.15 510.7 208.3 509.25 237.2 488.4 258 465.95 280.45 434.2 280.45 410.2 280.45 391.5 267.6 391.5 256.6 391.5 245.6 391.7 245.8 391.9 246 409.4 263.45 434.15 263.45 458.2 263.45 475.35 246.95 475.4 246.9 475.45 246.85 475.9 246.4 476.35 245.95 492.35 230 493.7 207.9
L 493.7 207.8
Q 493.7 207.75 493.7 207.7
L 493.7 207.65
Q 493.7 207.6 493.7 207.55 493.7 207.5 493.7 207.45 493.7 207.4 493.7 207.3 493.7 207.1 493.7 206.9 493.7 206.45 493.75 205.95
L 493.75 206.1
Q 493.8 205.4 493.8 204.7
L 493.8 204.55
Q 493.8 204.45 493.8 204.3 493.8 204.1 493.8 203.9
L 493.8 203.8
Q 493.8 203.7 493.8 203.6
L 493.8 203.55
Q 493.8 203.35 493.75 203.15 493.75 203.05 493.75 202.95 493.7 202 493.7 201
L 493.7 200.95
Q 492.75 178.15 476.4 161.75
L 476.35 161.65 476.35 161.7
Q 476.3 161.65 476.25 161.6
L 476.2 161.5
Q 458.8 144.15 434.15 144.15 409.45 144.15 392 161.6 391.55 162.05 391.1 162.45
M 403.35 174.25
Q 403.7 173.95 404.05 173.55
L 404.1 173.55
Q 416.55 161.15 434.15 161.15 451.35 161.15 463.65 173 463.85 173.2 464.05 173.4 464.15 173.55 464.25 173.65
L 464.3 173.7 464.35 173.7 464.45 173.8 464.4 173.8
Q 476 185.45 476.7 201.65 476.7 202.5 476.75 203.4 476.75 203.5 476.75 203.6 476.8 203.75 476.8 203.9 476.8 203.95 476.8 204 476.8 204.15 476.8 204.3 476.8 204.45 476.8 204.55
L 476.8 204.7
Q 476.75 205.5 476.7 206.25 476.7 206.4 476.7 206.55 476.7 206.6 476.7 206.65 476.7 206.75 476.7 206.85
L 476.7 207.1
Q 476.7 207.15 476.7 207.2
L 476.7 207.4
Q 476.7 207.5 476.7 207.55
L 476.7 207.85
Q 475.35 222.9 464.35 233.9
L 464.35 233.85
Q 464 234.25 463.65 234.6 463.6 234.65 463.55 234.7 463.5 234.8 463.4 234.85
L 463.3 234.95
Q 463.3 235 463.25 235 463.2 235.05 463.15 235.1
L 463.4 234.9
Q 451.2 246.5 434.15 246.45 416.45 246.45 403.95 234 391.9 221.9 391.5 204.9
L 391.5 203.75
Q 391.5 203.2 391.5 202.7 391.85 186.6 402.7 174.9 402.75 174.85 402.8 174.8 402.9 174.7 403 174.6
L 403.05 174.55
Q 403.1 174.55 403.1 174.5
L 403.1 174.45
Q 403.25 174.35 403.35 174.25
M 340.5 203.75
L 340.5 205.7
Q 340.5 206.1 340.5 206.5 339.5 236.35 318.1 257.7 295.65 280.2 263.9 280.2 263.2 280.2 262.55 280.2 231.65 279.7 209.7 257.75
L 209.7 257.7
Q 188.15 236.2 187.3 206.05 187.3 205.6 187.3 205.2 187.3 205 187.3 204.8 187.3 204.3 187.3 203.75
L 187.3 201.8
Q 187.3 201.4 187.3 201 188.3 171.15 209.7 149.8 232.15 127.3 263.9 127.3 264.6 127.3 265.25 127.3 296.15 127.8 318.1 149.75
L 318.1 149.8
Q 339.65 171.3 340.55 201.5 340.5 201.9 340.5 202.3 340.5 202.5 340.5 202.7 340.5 203.2 340.5 203.75
M 64.15 172.9
Q 64.2 172.85 64.25 172.8 64.3 172.7 64.4 172.65
L 64.5 172.55
Q 64.5 172.5 64.55 172.5 64.6 172.45 64.65 172.4
L 64.4 172.6
Q 76.6 161 93.65 161.05 111.35 161.05 123.85 173.5 135.9 185.6 136.3 202.6
L 136.3 203.75
Q 136.3 204.3 136.3 204.8 135.95 220.9 125.1 232.6 125.05 232.65 125 232.7 124.9 232.8 124.8 232.9
L 124.75 232.95
Q 124.7 232.95 124.7 233
L 124.7 233.05
Q 124.55 233.15 124.45 233.25 124.1 233.55 123.75 233.95
L 123.7 233.95
Q 111.25 246.35 93.65 246.35 76.45 246.35 64.15 234.5 63.95 234.3 63.75 234.1 63.65 233.95 63.55 233.85
L 63.5 233.8 63.45 233.8 63.35 233.7 63.4 233.7
Q 51.8 222.05 51.1 205.85 51.1 205 51.05 204.1 51.05 204 51.05 203.9 51 203.75 51 203.6 51 203.55 51 203.5 51 203.35 51 203.2 51 203.05 51 202.95
L 51 202.8
Q 51.05 202 51.1 201.25 51.1 201.1 51.1 200.95 51.1 200.9 51.1 200.85 51.1 200.75 51.1 200.65
L 51.1 200.4
Q 51.1 200.35 51.1 200.3
L 51.1 200.1
Q 51.1 200 51.1 199.95
L 51.1 199.65
Q 52.45 184.6 63.45 173.6
L 63.45 173.65
Q 63.8 173.25 64.15 172.9
M 222.6 160.5
Q 222.15 160.95 221.7 161.4 205.7 177.35 204.35 199.45
L 204.35 199.55
Q 204.35 199.6 204.35 199.65
L 204.35 199.7
Q 204.35 199.75 204.35 199.8 204.35 199.85 204.35 199.9 204.35 199.95 204.35 200.05 204.35 200.25 204.35 200.45 204.35 200.9 204.3 201.4
L 204.3 201.25
Q 204.25 201.95 204.25 202.65
L 204.25 202.8
Q 204.25 202.9 204.25 203.05 204.25 203.25 204.25 203.45
L 204.25 203.55
Q 204.25 203.65 204.25 203.75 204.25 203.85 204.25 203.95 204.25 205.65 204.3 207.35 205.45 229.9 221.65 246.15 238.65 263.1 262.55 263.55 263.2 263.6 263.9 263.6 287.95 263.6 305.1 247.1 305.15 247.05 305.2 247 305.65 246.55 306.1 246.1 322.1 230.15 323.45 208.05
L 323.45 207.95
Q 323.45 207.9 323.45 207.85
L 323.45 207.8
Q 323.45 207.75 323.45 207.7 323.45 207.65 323.45 207.6 323.45 207.55 323.45 207.45 323.45 207.25 323.45 207.05 323.45 206.6 323.5 206.1
L 323.5 206.25
Q 323.55 205.55 323.55 204.85
L 323.55 204.7
Q 323.55 204.6 323.55 204.45 323.55 204.25 323.55 204.05
L 323.55 203.95
Q 323.55 203.85 323.55 203.75 323.55 203.65 323.55 203.55 323.55 201.85 323.5 200.15 322.35 177.6 306.15 161.35 289.15 144.4 265.25 143.95 264.6 143.9 263.9 143.9 239.85 143.9 222.7 160.4 222.65 160.45 222.6 160.5
M 234.4 172.75
Q 234.45 172.7 234.5 172.65 234.55 172.55 234.65 172.5
L 234.75 172.4
Q 234.75 172.35 234.8 172.35 234.85 172.3 234.9 172.25
L 234.65 172.45
Q 246.85 160.85 263.9 160.9 264.6 160.9 265.25 160.95 282.1 161.4 294.1 173.35 306.55 185.85 306.55 203.55 306.55 203.65 306.55 203.75
L 306.5 203.75
Q 306.55 203.9 306.55 204.05 306.55 204.1 306.55 204.15 306.55 204.3 306.55 204.45 306.55 204.6 306.55 204.7
L 306.55 204.85
Q 306.5 205.65 306.45 206.4 306.45 206.55 306.45 206.7 306.45 206.75 306.45 206.8 306.45 206.9 306.45 207
L 306.45 207.25
Q 306.45 207.3 306.45 207.35
L 306.45 207.55
Q 306.45 207.65 306.45 207.7
L 306.45 208
Q 305.1 223.05 294.1 234.05
L 294.1 234
Q 293.75 234.4 293.4 234.75 293.35 234.8 293.3 234.85 293.25 234.95 293.15 235
L 293.05 235.1
Q 293.05 235.15 293 235.15 292.95 235.2 292.9 235.25
L 293.15 235.05
Q 280.95 246.65 263.9 246.6 263.2 246.6 262.55 246.55 245.7 246.1 233.7 234.15 221.25 221.65 221.25 203.95 221.25 203.85 221.25 203.75
L 221.3 203.75
Q 221.25 203.6 221.25 203.45 221.25 203.4 221.25 203.35 221.25 203.2 221.25 203.05 221.25 202.9 221.25 202.8
L 221.25 202.65
Q 221.3 201.85 221.35 201.1 221.35 200.95 221.35 200.8 221.35 200.75 221.35 200.7 221.35 200.6 221.35 200.5
L 221.35 200.25
Q 221.35 200.2 221.35 200.15
L 221.35 199.95
Q 221.35 199.85 221.35 199.8
L 221.35 199.5
Q 222.7 184.45 233.7 173.45
L 233.7 173.5
Q 234.05 173.1 234.4 172.75 Z"/>
</g>

<g id="shadow_0_Layer0_0_FILL">
<path fill="url(#Gradient_1)" stroke="none" d="
M 13.2 61.7
Q 6.3 58.8 0 54.5
L 0 74.4
Q 6.4 77.7 13.2 79.9
L 13.2 61.7 Z"/>

<path fill="url(#Gradient_2)" stroke="none" d="
M 12.4 20.85
Q 3.4 11.8 0.9 0
L 0 0 0 32.5
Q 0.2 32.7 0.35 32.85 6.35 38.85 13.2 42.8
L 13.2 21.65
Q 12.8 21.25 12.4 20.85 Z"/>
</g>
</defs>

<g transform="matrix( 0.94732666015625, 0, 0, 0.947235107421875, 0,0) ">
<g transform="matrix( 1, 0, 0, 1, 0,0) ">
<use xlink:href="#dop_0_Layer0_0_MEMBER_0_FILL"/>
</g>

<g transform="matrix( 1, 0, 0, 1, 391.35,213) ">
<g transform="matrix( 1, 0, 0, 1, 0,0) ">
<use xlink:href="#shadow_0_Layer0_0_FILL"/>
</g>
</g>

<g transform="matrix( -1, 0, 0, -1, 136.3,194.45) ">
<g transform="matrix( 1, 0, 0, 1, 0,0) ">
<use xlink:href="#shadow_0_Layer0_0_FILL"/>
</g>
</g>
</g>
</svg>
