
<svg xmlns="http://www.w3.org/2000/svg" version="1.1" xmlns:xlink="http://www.w3.org/1999/xlink" preserveAspectRatio="none" x="0px" y="0px" width="1400px" height="1000px" viewBox="0 0 1400 1000">
<defs>
<image id="Bitmap_1" x="0" y="0" width="500" height="247" xlink:href="./images/Bitmap_1.png"/>

<filter id="Filter_1" x="-20%" y="-20%" width="140%" height="140%" color-interpolation-filters="sRGB">
<feColorMatrix in="SourceGraphic" type="matrix" values="0 0 0 0 0.8509803921568627 0 0 0 0 0 0 0 0 0 0.24313725490196078 0 0 0 1 0" result="result1"/>
</filter>

<g id="du3_0_Layer1_0_FILL">
<path fill="#FF3300" stroke="none" d="
M 59.5 -65.65
L 59.5 -41.45 82.65 -41.45 82.65 -65.65 59.5 -65.65
M 59.5 -41.45
L 59.5 -38.9 59.5 -31.5 59.5 -11.05 59.55 68.65
Q 59.524609375 68.624609375 59.5 68.6
L 59.5 124.9
Q 59.5 124.975 59.5 125.05 59.5 139.8 53 151.85 49.05 159.15 42.75 165.45 26 182.15 2.35 182.15 -21.3 182.15 -38 165.45 -54.7 148.7 -54.7 125.05 -54.7 101.4 -38 84.65 -21.3 67.95 2.35 67.95 25.8 67.95 42.45 84.35 42.6 84.5 42.75 84.65 53.16015625 95.06015625 57.1 108.1
L 57.1 66.25
Q 50.175 59.7390625 42.45 55.2 24.55 44.7 2.3 44.7 -30.95 44.7 -54.45 68.2 -77.95 91.75 -77.95 125 -77.95 158.3 -54.45 181.8 -30.95 205.3 2.3 205.3 35.6 205.3 59.1 181.8 69.3744140625 171.5255859375 75.15 159.4
L 113.35 101.8 122.05 90.1
Q 124.831640625 86.868359375 126.85 84.85 143.55 68.15 167.2 68.15 180.85 68.15 191.3 73.1 204.65 79.4 215.95 94.9 221.2 102.15 223.15 114 224.35 121.45 224.1 127.85 223.85 135.05 221.65 142.4
L 245.4 106.25
Q 240.5025390625 84.9525390625 223.95 68.4 216.15 60.6 207.3 55.4 189.4 44.9 167.15 44.9 133.9 44.9 110.4 68.4 106.40390625 72.4044921875 103.1 76.7 97.6447265625 83.247265625 92.95 90.55
L 84.2 102.3 82.65 104.4 82.65 -11.05 82.65 -31.5 82.65 -38.9 82.65 -41.45 59.5 -41.45 Z"/>
</g>

<g id="du2_0_Layer2_0_FILL">
<path fill="#EFEFEF" stroke="none" d="
M 153.3 25.85
L 136.3 25.85
Q 136.3 92.1232421875 136.3 158.35 136.3 168.33203125 136.3 178.3 136.3 189.3021484375 136.3 200.3 136.101171875 200.1017578125 135.9 199.9 118.4 182.45 93.65 182.45 69.6 182.45 52.45 198.95 52.4 199 52.35 199.05 51.9 199.5 51.45 199.95 35.45 215.9 34.1 238
L 34.1 238.1
Q 34.1 238.15 34.1 238.2
L 34.1 238.25
Q 34.1 238.3 34.1 238.35 34.1 238.4 34.1 238.45 34.1 238.5 34.1 238.6 34.1 238.8 34.1 239 34.1 239.45 34.05 239.95
L 34.05 239.8
Q 34 240.5 34 241.2
L 34 241.35
Q 34 241.45 34 241.6 34 241.8 34 242
L 34 242.1
Q 34 242.2 34 242.3
L 34 242.35
Q 34 242.55 34.05 242.75 34.05 242.85 34.05 242.95 34.1 243.9 34.1 244.9
L 34.1 244.95
Q 35.05 267.75 51.4 284.15
L 51.45 284.25 51.45 284.2
Q 51.5 284.25 51.55 284.3
L 51.6 284.4
Q 69 301.75 93.65 301.75 118.35 301.75 135.8 284.3 136.25 283.85 136.7 283.45 136.75 283.4 136.8 283.35 152.85 266.65 153.3 243.45 153.3 243.35 153.3 243.2 153.3 242.675 153.3 242.15
L 153.3 240.55
Q 153.3 133.1935546875 153.3 25.85
M 136.3 242.15
Q 136.3 242.675 136.3 243.2 135.95 259.3 125.1 271 125.05 271.05 125 271.1 124.9 271.2 124.8 271.3 124.77578125 271.32421875 124.75 271.35 124.7 271.35 124.7 271.4
L 124.7 271.45
Q 124.55 271.55 124.45 271.65 124.1 271.95 123.75 272.35
L 123.7 272.35
Q 111.25 284.75 93.65 284.75 76.45 284.75 64.15 272.9 63.95 272.7 63.75 272.5 63.65 272.35 63.55 272.25
L 63.5 272.2 63.45 272.2 63.35 272.1 63.4 272.1
Q 51.8 260.45 51.1 244.25 51.1 243.4 51.05 242.5 51.05 242.4 51.05 242.3 51 242.15 51 242 51 241.95 51 241.9 51 241.75 51 241.6 51 241.45 51 241.35
L 51 241.2
Q 51.05 240.4 51.1 239.65 51.1 239.5 51.1 239.35 51.1 239.3 51.1 239.25 51.1 239.15 51.1 239.05
L 51.1 238.8
Q 51.1 238.7412109375 51.1 238.7
L 51.1 238.5
Q 51.1 238.393359375 51.1 238.35
L 51.1 238.05
Q 52.45 223 63.45 212
L 63.45 212.05
Q 63.8 211.65 64.15 211.3 64.2 211.25 64.25 211.2 64.3 211.1 64.4 211.05
L 64.5 210.95
Q 64.5 210.9 64.55 210.9 64.6 210.85 64.65 210.8
L 64.4 211
Q 76.6 199.4 93.65 199.45 111.35 199.45 123.85 211.9 135.9109375 224.009375 136.3 241
L 136.3 242.15 Z"/>

<path fill="#FFFFFF" stroke="none" d="
M 187.3 25.85
L 170.3 25.85
Q 170.3 79.2765625 170.3 132.7 170.3 160.3498046875 170.3 188
L 170.3 218.9
Q 170.3 230.4244140625 170.3 241.9
L 170.25 241.9
Q 170.25 242 170.25 242.1 170.25 242.65 170.25 243.2 170.25 243.4 170.25 243.6 169.7 274.4 147.8 296.3 125.35 318.7 93.6 318.7 61.85 318.7 39.4 296.3 18.3 275.2 17.05 245.85 17.05 245.5 17.05 245.1 17 244.65 17 244.2 17 244.1 17 243.95 16.95 243.45 16.95 242.9 16.95 242.65 16.95 242.35 16.95 242.25 16.95 242.1 16.95 241.95 16.95 241.85 16.95 241.75 16.95 241.6 16.95 241.35 16.95 241.15 16.95 239.5 17.05 237.85 17.05 237.75 17.1 237.6 18.55 208.7 39.4 187.9 61.85 165.45 93.6 165.45 117.6091796875 165.45 136.3 178.3 136.3 168.33203125 136.3 158.35 117.06015625 148.45 93.65 148.45 54.85 148.45 27.45 175.85 1.6 201.65 0.1 237.6 0.1 237.75 0.1 237.85 0 239.5 0 241.15 0 241.35 0 241.6 0 241.85 0 242.1 0 242.25 0 242.35 0 243.15 0.05 243.95 0.05 244.1 0.05 244.2 0.05 244.65 0.1 245.1 0.1 245.5 0.1 245.85 1.35 282.25 27.45 308.3 54.85 335.75 93.65 335.75 132.5 335.75 159.9 308.3 186.75 281.45 187.3 243.6 187.3 243.4 187.3 243.2 187.3 242.675 187.3 242.15
L 187.3 240.2
Q 187.3 133.0025390625 187.3 25.85 Z"/>

<path fill="#33CC66" stroke="none" d="
M 350.45 193.9
L 350.45 194 350.65 194
Q 350.55 193.95 350.45 193.9 Z"/>
</g>

<g id="du2_0_Layer1_0_FILL">
<path fill="#FFFFFF" stroke="none" d="
M 265.25 182.3
Q 264.5779296875 182.3 263.9 182.3 239.85 182.3 222.7 198.8 222.65 198.85 222.6 198.9 222.15 199.35 221.7 199.8 205.7 215.75 204.35 237.85
L 204.35 237.95
Q 204.35 238 204.35 238.05
L 204.35 238.1
Q 204.35 238.15 204.35 238.2 204.35 238.25 204.35 238.3 204.35 238.35 204.35 238.45 204.35 238.65 204.35 238.85 204.35 239.3 204.3 239.8
L 204.3 239.65
Q 204.25 240.35 204.25 241.05
L 204.25 241.2
Q 204.25 241.3 204.25 241.45 204.25 241.65 204.25 241.85
L 204.25 241.95
Q 204.25 242.05 204.25 242.15
L 221.3 242.15
Q 221.25 242 221.25 241.85 221.25 241.8 221.25 241.75 221.25 241.6 221.25 241.45 221.25 241.3 221.25 241.2
L 221.25 241.05
Q 221.3 240.25 221.35 239.5 221.35 239.35 221.35 239.2 221.35 239.15 221.35 239.1 221.35 239 221.35 238.9
L 221.35 238.65
Q 221.35 238.6 221.35 238.55
L 221.35 238.35
Q 221.35 238.25 221.35 238.2
L 221.35 237.9
Q 222.7 222.85 233.7 211.85
L 233.7 211.9
Q 234.05 211.5 234.4 211.15 234.45 211.1 234.5 211.05 234.55 210.95 234.65 210.9
L 234.75 210.8
Q 234.75 210.75 234.8 210.75 234.85 210.7 234.9 210.65
L 234.65 210.85
Q 246.85 199.25 263.9 199.3 264.57890625 199.3 265.25 199.3 282.0794921875 199.7775390625 294.1 211.75 306.55 224.25 306.55 241.95 306.55 242.05 306.55 242.15
L 323.55 242.15
Q 323.55 242.05 323.55 241.95 323.55 240.25 323.5 238.55 322.35 216 306.15 199.75 289.129296875 182.7779296875 265.25 182.3
M 340.55 242.1
L 357.55 242.1
Q 357.45 203.45 330.1 176.15 303.1779296875 149.1787109375 265.25 148.7 264.5767578125 148.7 263.9 148.7 225.1 148.7 197.65 176.15 171.1 202.7 170.3 239.95
L 170.3 242.1 187.25 242.1
Q 187.35 210.5 209.7 188.2 232.15 165.7 263.9 165.7 264.57734375 165.7 265.25 165.7 296.12890625 166.17890625 318.1 188.15
L 318.1 188.2
Q 340.45 210.5 340.55 242.1 Z"/>
</g>

<path id="mockup_0_Layer0_0_1_STROKES" stroke="#33CC66" stroke-width="19.35" stroke-linejoin="round" stroke-linecap="round" fill="none" d="
M 435.95 322.15
Q 430.9 238.8 430.9 197.6 430.9 128.25 441.05 74 443.8 59.35 447.25 50.4 452.05 37.85 459.95 30.25 468.45 22.1 482.2 17.95 492.45 14.85 508.05 13.5 527.75 11.9 542.8 13.15 561.55 14.65 576.45 20.65 593.3 27.3 605.2 39.85 617.95 53.3 621.2 69.75 618.45 70.8 615.45 70.2 612.45 69.55 610.3 67.5 621.65 79.05 624.4 99.3 626.25 112.9 624.3 136.25 623.35 149.15 621.65 156.35 619.1 167.2 613.55 174.25 606.95 182.55 594.55 187.4 586.6 190.55 571.3 193.65 547.6 198.5 533.55 198.5 512.55 198.5 498.55 189.4
M 397.95 154.4
Q 381.2 137.9 360.5 127.8 339 117.25 316.45 115.25 293.2 113.15 270.95 120.55 248.1 128.15 231.95 144
M 227.5 199.6
Q 235.85 212.7 251.7 222.2 264.25 229.75 282.85 235.7 306.3 243.35 325.6 244.95 349.1 246.9 368.1 240.2 381.55 235.55 395.2 225.7 406 217.9 418.75 205.35
M 158.5 0
L 155.5 201.35
Q 155.25 216.65 154.05 224.8 152.15 237.7 146.85 246.6 136.5 264.3 113.2 270.2 92.25 275.45 69.35 269.75 44.35 263.4 34.85 248.6 28.5 238.7 28.85 225.05 29.2 213.05 34.5 200.5 42.35 181.9 57.2 169.3 73.05 155.85 91.6 154.1 104.8 152.9 116.2 158.8 128.5 165.05 132.1 176.5"/>

<path id="mockup_0_Layer0_0_2_STROKES" stroke="#D9003E" stroke-width="19.35" stroke-linejoin="round" stroke-linecap="round" fill="none" d="
M 466.8 324
L 469.8 122.65
Q 470.05 107.35 471.25 99.2 473.15 86.3 478.45 77.4 488.8 59.7 512.1 53.8 533.05 48.55 555.95 54.25 580.95 60.6 590.45 75.4 596.8 85.3 596.45 98.95 596.1 110.95 590.8 123.5 582.95 142.1 568.1 154.7 552.25 168.15 533.7 169.9 520.5 171.1 509.1 165.2 496.8 158.95 493.2 147.5
M 397.8 122.85
Q 389.45 109.75 373.6 100.25 361.05 92.7 342.45 86.75 319 79.1 299.7 77.5 276.2 75.55 257.2 82.25 243.75 86.9 230.1 96.75 219.3 104.55 206.55 117.1
M 230.45 172.7
Q 247.2 189.2 267.9 199.3 289.4 209.85 311.95 211.85 335.2 213.95 357.45 206.55 380.3 198.95 396.45 183.1
M 189.35 1.85
Q 194.4 85.2 194.4 126.4 194.4 195.75 184.25 250 181.5 264.65 178.05 273.6 173.25 286.15 165.35 293.75 156.85 301.9 143.1 306.05 132.85 309.15 117.25 310.5 97.55 312.1 82.5 310.85 63.75 309.35 48.85 303.35 32 296.7 20.1 284.15 7.35 270.7 4.1 254.25 6.85 253.2 9.85 253.8 12.85 254.45 15 256.5 3.65 244.95 0.9 224.7 -0.95 211.1 1 187.75 1.95 174.85 3.65 167.65 6.2 156.8 11.75 149.75 18.35 141.45 30.75 136.6 38.7 133.45 54 130.35 77.7 125.5 91.75 125.5 112.75 125.5 126.75 134.6"/>
</defs>

<g transform="matrix( -3.0492095947265625, 0, 0, -3.0492095947265625, 968.6,902.15) ">
<use xlink:href="#Bitmap_1"/>
</g>

<g transform="matrix( 1, 0, 0, 1, 582.6,793.85) ">
<g transform="matrix( 1, 0, 0, 1, 0,0) ">
<use xlink:href="#mockup_0_Layer0_0_1_STROKES"/>

<use xlink:href="#mockup_0_Layer0_0_2_STROKES"/>
</g>
</g>

<g transform="matrix( 1.1748809814453125, 0, 0, 1.1748809814453125, 168,917.25) ">
<g transform="matrix( 1, 0, 0, 1, 0,0) ">
<use filter="url(#Filter_1)" xlink:href="#du3_0_Layer1_0_FILL"/>
</g>
</g>

<g transform="matrix( 1, 0, 0, 1, 406.25,258.25) ">
<g transform="matrix( 1, 0, 0, 1, 0,0) ">
<use xlink:href="#du2_0_Layer2_0_FILL"/>
</g>

<g transform="matrix( 1, 0, 0, 1, 0,0) ">
<use xlink:href="#du2_0_Layer1_0_FILL"/>
</g>
</g>

<g transform="matrix( -1, 0, 0, -1, 934.05,742.15) ">
<g transform="matrix( 1, 0, 0, 1, 0,0) ">
<use xlink:href="#du2_0_Layer2_0_FILL"/>
</g>

<g transform="matrix( 1, 0, 0, 1, 0,0) ">
<use xlink:href="#du2_0_Layer1_0_FILL"/>
</g>
</g>
</svg>
