
<svg xmlns="http://www.w3.org/2000/svg" version="1.1" xmlns:xlink="http://www.w3.org/1999/xlink" preserveAspectRatio="none" x="0px" y="0px" width="550px" height="447px" viewBox="0 0 550 447">
<defs>
<g id="du2_0_Layer2_0_FILL">
<path fill="#EFEFEF" stroke="none" d="
M 153.3 25.85
L 136.3 25.85
Q 136.3 92.1232421875 136.3 158.35 136.3 168.33203125 136.3 178.3 136.3 189.3021484375 136.3 200.3 136.101171875 200.1017578125 135.9 199.9 118.4 182.45 93.65 182.45 69.6 182.45 52.45 198.95 52.4 199 52.35 199.05 51.9 199.5 51.45 199.95 35.45 215.9 34.1 238
L 34.1 238.1
Q 34.1 238.15 34.1 238.2
L 34.1 238.25
Q 34.1 238.3 34.1 238.35 34.1 238.4 34.1 238.45 34.1 238.5 34.1 238.6 34.1 238.8 34.1 239 34.1 239.45 34.05 239.95
L 34.05 239.8
Q 34 240.5 34 241.2
L 34 241.35
Q 34 241.45 34 241.6 34 241.8 34 242
L 34 242.1
Q 34 242.2 34 242.3
L 34 242.35
Q 34 242.55 34.05 242.75 34.05 242.85 34.05 242.95 34.1 243.9 34.1 244.9
L 34.1 244.95
Q 35.05 267.75 51.4 284.15
L 51.45 284.25 51.45 284.2
Q 51.5 284.25 51.55 284.3
L 51.6 284.4
Q 69 301.75 93.65 301.75 118.35 301.75 135.8 284.3 136.25 283.85 136.7 283.45 136.75 283.4 136.8 283.35 152.85 266.65 153.3 243.45 153.3 243.35 153.3 243.2 153.3 242.675 153.3 242.15
L 153.3 240.55
Q 153.3 133.1935546875 153.3 25.85
M 136.3 242.15
Q 136.3 242.675 136.3 243.2 135.95 259.3 125.1 271 125.05 271.05 125 271.1 124.9 271.2 124.8 271.3 124.77578125 271.32421875 124.75 271.35 124.7 271.35 124.7 271.4
L 124.7 271.45
Q 124.55 271.55 124.45 271.65 124.1 271.95 123.75 272.35
L 123.7 272.35
Q 111.25 284.75 93.65 284.75 76.45 284.75 64.15 272.9 63.95 272.7 63.75 272.5 63.65 272.35 63.55 272.25
L 63.5 272.2 63.45 272.2 63.35 272.1 63.4 272.1
Q 51.8 260.45 51.1 244.25 51.1 243.4 51.05 242.5 51.05 242.4 51.05 242.3 51 242.15 51 242 51 241.95 51 241.9 51 241.75 51 241.6 51 241.45 51 241.35
L 51 241.2
Q 51.05 240.4 51.1 239.65 51.1 239.5 51.1 239.35 51.1 239.3 51.1 239.25 51.1 239.15 51.1 239.05
L 51.1 238.8
Q 51.1 238.7412109375 51.1 238.7
L 51.1 238.5
Q 51.1 238.393359375 51.1 238.35
L 51.1 238.05
Q 52.45 223 63.45 212
L 63.45 212.05
Q 63.8 211.65 64.15 211.3 64.2 211.25 64.25 211.2 64.3 211.1 64.4 211.05
L 64.5 210.95
Q 64.5 210.9 64.55 210.9 64.6 210.85 64.65 210.8
L 64.4 211
Q 76.6 199.4 93.65 199.45 111.35 199.45 123.85 211.9 135.9109375 224.009375 136.3 241
L 136.3 242.15 Z"/>

<path fill="#FFFFFF" stroke="none" d="
M 187.3 25.85
L 170.3 25.85
Q 170.3 79.2765625 170.3 132.7 170.3 160.3498046875 170.3 188
L 170.3 218.9
Q 170.3 230.4244140625 170.3 241.9
L 170.25 241.9
Q 170.25 242 170.25 242.1 170.25 242.65 170.25 243.2 170.25 243.4 170.25 243.6 169.7 274.4 147.8 296.3 125.35 318.7 93.6 318.7 61.85 318.7 39.4 296.3 18.3 275.2 17.05 245.85 17.05 245.5 17.05 245.1 17 244.65 17 244.2 17 244.1 17 243.95 16.95 243.45 16.95 242.9 16.95 242.65 16.95 242.35 16.95 242.25 16.95 242.1 16.95 241.95 16.95 241.85 16.95 241.75 16.95 241.6 16.95 241.35 16.95 241.15 16.95 239.5 17.05 237.85 17.05 237.75 17.1 237.6 18.55 208.7 39.4 187.9 61.85 165.45 93.6 165.45 117.6091796875 165.45 136.3 178.3 136.3 168.33203125 136.3 158.35 117.06015625 148.45 93.65 148.45 54.85 148.45 27.45 175.85 1.6 201.65 0.1 237.6 0.1 237.75 0.1 237.85 0 239.5 0 241.15 0 241.35 0 241.6 0 241.85 0 242.1 0 242.25 0 242.35 0 243.15 0.05 243.95 0.05 244.1 0.05 244.2 0.05 244.65 0.1 245.1 0.1 245.5 0.1 245.85 1.35 282.25 27.45 308.3 54.85 335.75 93.65 335.75 132.5 335.75 159.9 308.3 186.75 281.45 187.3 243.6 187.3 243.4 187.3 243.2 187.3 242.675 187.3 242.15
L 187.3 240.2
Q 187.3 133.0025390625 187.3 25.85 Z"/>

<path fill="#33CC66" stroke="none" d="
M 350.45 193.9
L 350.45 194 350.65 194
Q 350.55 193.95 350.45 193.9 Z"/>
</g>

<g id="du2_0_Layer1_0_FILL">
<path fill="#FFFFFF" stroke="none" d="
M 265.25 182.3
Q 264.5779296875 182.3 263.9 182.3 239.85 182.3 222.7 198.8 222.65 198.85 222.6 198.9 222.15 199.35 221.7 199.8 205.7 215.75 204.35 237.85
L 204.35 237.95
Q 204.35 238 204.35 238.05
L 204.35 238.1
Q 204.35 238.15 204.35 238.2 204.35 238.25 204.35 238.3 204.35 238.35 204.35 238.45 204.35 238.65 204.35 238.85 204.35 239.3 204.3 239.8
L 204.3 239.65
Q 204.25 240.35 204.25 241.05
L 204.25 241.2
Q 204.25 241.3 204.25 241.45 204.25 241.65 204.25 241.85
L 204.25 241.95
Q 204.25 242.05 204.25 242.15
L 221.3 242.15
Q 221.25 242 221.25 241.85 221.25 241.8 221.25 241.75 221.25 241.6 221.25 241.45 221.25 241.3 221.25 241.2
L 221.25 241.05
Q 221.3 240.25 221.35 239.5 221.35 239.35 221.35 239.2 221.35 239.15 221.35 239.1 221.35 239 221.35 238.9
L 221.35 238.65
Q 221.35 238.6 221.35 238.55
L 221.35 238.35
Q 221.35 238.25 221.35 238.2
L 221.35 237.9
Q 222.7 222.85 233.7 211.85
L 233.7 211.9
Q 234.05 211.5 234.4 211.15 234.45 211.1 234.5 211.05 234.55 210.95 234.65 210.9
L 234.75 210.8
Q 234.75 210.75 234.8 210.75 234.85 210.7 234.9 210.65
L 234.65 210.85
Q 246.85 199.25 263.9 199.3 264.57890625 199.3 265.25 199.3 282.0794921875 199.7775390625 294.1 211.75 306.55 224.25 306.55 241.95 306.55 242.05 306.55 242.15
L 323.55 242.15
Q 323.55 242.05 323.55 241.95 323.55 240.25 323.5 238.55 322.35 216 306.15 199.75 289.129296875 182.7779296875 265.25 182.3
M 340.55 242.1
L 357.55 242.1
Q 357.45 203.45 330.1 176.15 303.1779296875 149.1787109375 265.25 148.7 264.5767578125 148.7 263.9 148.7 225.1 148.7 197.65 176.15 171.1 202.7 170.3 239.95
L 170.3 242.1 187.25 242.1
Q 187.35 210.5 209.7 188.2 232.15 165.7 263.9 165.7 264.57734375 165.7 265.25 165.7 296.12890625 166.17890625 318.1 188.15
L 318.1 188.2
Q 340.45 210.5 340.55 242.1 Z"/>
</g>
</defs>

<g transform="matrix( 1, 0, 0, 1, 11.6,-25.85) ">
<g transform="matrix( 1, 0, 0, 1, 0,0) ">
<use xlink:href="#du2_0_Layer2_0_FILL"/>
</g>

<g transform="matrix( 1, 0, 0, 1, 0,0) ">
<use xlink:href="#du2_0_Layer1_0_FILL"/>
</g>
</g>

<g transform="matrix( -1, 0, 0, -1, 539.4,458.05) ">
<g transform="matrix( 1, 0, 0, 1, 0,0) ">
<use xlink:href="#du2_0_Layer2_0_FILL"/>
</g>

<g transform="matrix( 1, 0, 0, 1, 0,0) ">
<use xlink:href="#du2_0_Layer1_0_FILL"/>
</g>
</g>
</svg>
