
<svg xmlns="http://www.w3.org/2000/svg" version="1.1" xmlns:xlink="http://www.w3.org/1999/xlink" preserveAspectRatio="none" x="0px" y="0px" width="500px" height="350px" viewBox="0 0 500 350">
<defs>
<g id="dop_0_Layer0_1_FILL">
<path fill="#000000" stroke="none" d="
M 493.7 181.95
L 493.7 181.9
Q 492.75 159.1 476.4 142.7
L 476.35 142.6 476.35 142.65
Q 476.3 142.6 476.25 142.55
L 476.2 142.45
Q 458.8 125.1 434.15 125.1 409.45 125.1 392 142.55 391.55 143 391.1 143.4 391.05 143.45 391 143.5 374.95 160.2 374.5 183.4 374.5 183.5 374.5 183.65 374.5 184.15 374.5 184.7
L 374.5 186.25
Q 374.5 275.45 374.5 364.6 374.5 366.95 374.5 369.3 374.5 369.4 374.5 369.45
L 391.5 369.45
Q 391.5 369.4 391.5 369.3 391.5 366.95 391.5 364.6 391.5 316.5 391.5 268.45 410.75 278.4 434.15 278.4 472.95 278.4 500.35 251 526.2 225.2 527.7 189.25 527.7 189.1 527.7 189 527.8 187.35 527.8 185.7 527.8 185.5 527.8 185.25 527.8 185 527.8 184.75 527.8 184.6 527.8 184.5 527.8 183.7 527.75 182.9 527.75 182.75 527.75 182.65 527.75 182.2 527.7 181.75 527.7 181.35 527.7 181 526.45 144.6 500.35 118.55 472.95 91.1 434.15 91.1 395.3 91.1 367.9 118.55 355.75 130.7 349 145.1 342.2 130.8 330.1 118.7 303.2 91.75 265.25 91.25 264.6 91.25 263.9 91.25 225.1 91.25 197.65 118.7 191.85 124.5 187.3 130.8 187.3 65.4 187.3 0
L 170.3 0
Q 170.3 37.65 170.3 75.25 170.3 102.9 170.3 130.55
L 170.3 161.45
Q 170.3 172 170.3 182.5
L 170.3 184.45 170.25 184.45
Q 170.25 184.55 170.25 184.65 170.25 184.7 170.25 184.75
L 170.25 185.75
Q 170.25 185.95 170.25 186.15 169.7 216.95 147.8 238.85 125.35 261.25 93.6 261.25 61.85 261.25 39.4 238.85 18.3 217.75 17.05 188.4 17.05 188.05 17.05 187.65 17 187.2 17 186.75 17 186.65 17 186.5 16.95 186 16.95 185.45 16.95 185.2 16.95 184.9 16.95 184.8 16.95 184.65 16.95 184.5 16.95 184.4 16.95 184.3 16.95 184.15 16.95 183.9 16.95 183.7 16.95 182.05 17.05 180.4 17.05 180.3 17.1 180.15 18.55 151.25 39.4 130.45 61.85 108 93.6 108 117.6 108 136.3 120.85 136.3 131.85 136.3 142.85 136.1 142.65 135.9 142.45 118.4 125 93.65 125 69.6 125 52.45 141.5 52.4 141.55 52.35 141.6 51.9 142.05 51.45 142.5 35.45 158.45 34.1 180.55
L 34.1 180.65
Q 34.1 180.7 34.1 180.75
L 34.1 180.8
Q 34.1 180.85 34.1 180.9 34.1 180.95 34.1 181 34.1 181.05 34.1 181.15 34.1 181.35 34.1 181.55 34.1 182 34.05 182.5
L 34.05 182.35
Q 34 183.05 34 183.75
L 34 183.9
Q 34 184 34 184.15 34 184.35 34 184.55
L 34 184.65
Q 34 184.75 34 184.85
L 34 184.9
Q 34 185.1 34.05 185.3 34.05 185.4 34.05 185.5 34.1 186.45 34.1 187.45
L 34.1 187.5
Q 35.05 210.3 51.4 226.7
L 51.45 226.8 51.45 226.75
Q 51.5 226.8 51.55 226.85
L 51.6 226.95
Q 69 244.3 93.65 244.3 118.35 244.3 135.8 226.85 136.25 226.4 136.7 226 136.75 225.95 136.8 225.9 152.85 209.2 153.3 186 153.3 185.9 153.3 185.75 153.3 185.25 153.3 184.7
L 153.3 183.15
Q 153.3 91.55 153.3 0
L 136.3 0
Q 136.3 50.5 136.3 100.95 117.05 91 93.65 91 54.85 91 27.45 118.4 1.6 144.2 0.1 180.15 0.1 180.3 0.1 180.4 0 182.05 0 183.7 0 183.9 0 184.15 0 184.4 0 184.65 0 184.8 0 184.9 0 185.7 0.05 186.5 0.05 186.65 0.05 186.75 0.05 187.2 0.1 187.65 0.1 188.05 0.1 188.4 1.35 224.8 27.45 250.85 54.85 278.3 93.65 278.3 132.5 278.3 159.9 250.85 172.05 238.7 178.85 224.3 185.6 238.6 197.7 250.7 224.6 277.65 262.55 278.15 263.2 278.15 263.9 278.15 302.7 278.15 330.15 250.7 335.95 244.9 340.5 238.6 340.5 301.6 340.5 364.6 340.5 366.95 340.5 369.3 340.5 369.4 340.5 369.45
L 357.5 369.45
Q 357.5 369.4 357.5 369.3 357.5 366.95 357.5 364.6 357.5 329.35 357.5 294.15 357.5 266.5 357.5 238.85
L 357.5 207.95
Q 357.5 197.4 357.5 186.9
L 357.5 184.95 357.55 184.95
Q 357.55 184.85 357.55 184.75 357.55 184.7 357.55 184.65
L 357.55 183.65
Q 357.55 183.45 357.55 183.25 358.1 152.45 380 130.55 402.45 108.15 434.2 108.15 465.95 108.15 488.4 130.55 509.5 151.65 510.75 181 510.75 181.35 510.75 181.75 510.8 182.2 510.8 182.65 510.8 182.75 510.8 182.9 510.85 183.4 510.85 183.95 510.85 184.2 510.85 184.5 510.85 184.6 510.85 184.75 510.85 184.9 510.85 185 510.85 185.1 510.85 185.25 510.85 185.5 510.85 185.7 510.85 187.35 510.75 189 510.75 189.1 510.7 189.25 509.25 218.15 488.4 238.95 465.95 261.4 434.2 261.4 410.2 261.4 391.5 248.55 391.5 237.55 391.5 226.55 391.7 226.75 391.9 226.95 409.4 244.4 434.15 244.4 458.2 244.4 475.35 227.9 475.4 227.85 475.45 227.8 475.9 227.35 476.35 226.9 492.35 210.95 493.7 188.85
L 493.7 188.75
Q 493.7 188.7 493.7 188.65
L 493.7 188.6
Q 493.7 188.55 493.7 188.5 493.7 188.45 493.7 188.4 493.7 188.35 493.7 188.25 493.7 188.05 493.7 187.85 493.7 187.4 493.75 186.9
L 493.75 187.05
Q 493.8 186.35 493.8 185.65
L 493.8 185.5
Q 493.8 185.4 493.8 185.25 493.8 185.05 493.8 184.85
L 493.8 184.75
Q 493.8 184.65 493.8 184.55
L 493.8 184.5
Q 493.8 184.3 493.75 184.1 493.75 184 493.75 183.9 493.7 182.95 493.7 181.95
M 340.5 184.7
L 340.5 186.65
Q 340.5 187.05 340.5 187.45 339.5 217.3 318.1 238.65 295.65 261.15 263.9 261.15 263.2 261.15 262.55 261.15 231.65 260.65 209.7 238.7
L 209.7 238.65
Q 188.15 217.15 187.3 187 187.3 186.55 187.3 186.15 187.3 185.95 187.3 185.75 187.3 185.25 187.3 184.7
L 187.3 182.75
Q 187.3 182.35 187.3 181.95 188.3 152.1 209.7 130.75 232.15 108.25 263.9 108.25 264.6 108.25 265.25 108.25 296.15 108.75 318.1 130.7
L 318.1 130.75
Q 339.65 152.25 340.55 182.45 340.5 182.85 340.5 183.25 340.5 183.45 340.5 183.65 340.5 184.15 340.5 184.7
M 404.05 154.5
L 404.1 154.5
Q 416.55 142.1 434.15 142.1 451.35 142.1 463.65 153.95 463.85 154.15 464.05 154.35 464.15 154.5 464.25 154.6
L 464.3 154.65 464.35 154.65 464.45 154.75 464.4 154.75
Q 476 166.4 476.7 182.6 476.7 183.45 476.75 184.35 476.75 184.45 476.75 184.55 476.8 184.7 476.8 184.85 476.8 184.9 476.8 184.95 476.8 185.1 476.8 185.25 476.8 185.4 476.8 185.5
L 476.8 185.65
Q 476.75 186.45 476.7 187.2 476.7 187.35 476.7 187.5 476.7 187.55 476.7 187.6 476.7 187.7 476.7 187.8
L 476.7 188.05
Q 476.7 188.1 476.7 188.15
L 476.7 188.35
Q 476.7 188.45 476.7 188.5
L 476.7 188.8
Q 475.35 203.85 464.35 214.85
L 464.35 214.8
Q 464 215.2 463.65 215.55 463.6 215.6 463.55 215.65 463.5 215.75 463.4 215.8
L 463.3 215.9
Q 463.3 215.95 463.25 215.95 463.2 216 463.15 216.05
L 463.4 215.85
Q 451.2 227.45 434.15 227.4 416.45 227.4 403.95 214.95 391.9 202.85 391.5 185.85
L 391.5 184.7
Q 391.5 184.15 391.5 183.65 391.85 167.55 402.7 155.85 402.75 155.8 402.8 155.75 402.9 155.65 403 155.55
L 403.05 155.5
Q 403.1 155.5 403.1 155.45
L 403.1 155.4
Q 403.25 155.3 403.35 155.2 403.7 154.9 404.05 154.5
M 64.65 153.35
L 64.4 153.55
Q 76.6 141.95 93.65 142 111.35 142 123.85 154.45 135.9 166.55 136.3 183.55
L 136.3 184.7
Q 136.3 185.25 136.3 185.75 135.95 201.85 125.1 213.55 125.05 213.6 125 213.65 124.9 213.75 124.8 213.85
L 124.75 213.9
Q 124.7 213.9 124.7 213.95
L 124.7 214
Q 124.55 214.1 124.45 214.2 124.1 214.5 123.75 214.9
L 123.7 214.9
Q 111.25 227.3 93.65 227.3 76.45 227.3 64.15 215.45 63.95 215.25 63.75 215.05 63.65 214.9 63.55 214.8
L 63.5 214.75 63.45 214.75 63.35 214.65 63.4 214.65
Q 51.8 203 51.1 186.8 51.1 185.95 51.05 185.05 51.05 184.95 51.05 184.85 51 184.7 51 184.55 51 184.5 51 184.45 51 184.3 51 184.15 51 184 51 183.9
L 51 183.75
Q 51.05 182.95 51.1 182.2 51.1 182.05 51.1 181.9 51.1 181.85 51.1 181.8 51.1 181.7 51.1 181.6
L 51.1 181.35
Q 51.1 181.3 51.1 181.25
L 51.1 181.05
Q 51.1 180.95 51.1 180.9
L 51.1 180.6
Q 52.45 165.55 63.45 154.55
L 63.45 154.6
Q 63.8 154.2 64.15 153.85 64.2 153.8 64.25 153.75 64.3 153.65 64.4 153.6
L 64.5 153.5
Q 64.5 153.45 64.55 153.45 64.6 153.4 64.65 153.35
M 222.7 141.35
Q 222.65 141.4 222.6 141.45 222.15 141.9 221.7 142.35 205.7 158.3 204.35 180.4
L 204.35 180.5
Q 204.35 180.55 204.35 180.6
L 204.35 180.65
Q 204.35 180.7 204.35 180.75 204.35 180.8 204.35 180.85 204.35 180.9 204.35 181 204.35 181.2 204.35 181.4 204.35 181.85 204.3 182.35
L 204.3 182.2
Q 204.25 182.9 204.25 183.6
L 204.25 183.75
Q 204.25 183.85 204.25 184 204.25 184.2 204.25 184.4
L 204.25 184.5
Q 204.25 184.6 204.25 184.7 204.25 184.8 204.25 184.9 204.25 186.6 204.3 188.3 205.45 210.85 221.65 227.1 238.65 244.05 262.55 244.5 263.2 244.55 263.9 244.55 287.95 244.55 305.1 228.05 305.15 228 305.2 227.95 305.65 227.5 306.1 227.05 322.1 211.1 323.45 189
L 323.45 188.9
Q 323.45 188.85 323.45 188.8
L 323.45 188.75
Q 323.45 188.7 323.45 188.65 323.45 188.6 323.45 188.55 323.45 188.5 323.45 188.4 323.45 188.2 323.45 188 323.45 187.55 323.5 187.05
L 323.5 187.2
Q 323.55 186.5 323.55 185.8
L 323.55 185.65
Q 323.55 185.55 323.55 185.4 323.55 185.2 323.55 185
L 323.55 184.9
Q 323.55 184.8 323.55 184.7 323.55 184.6 323.55 184.5 323.55 182.8 323.5 181.1 322.35 158.55 306.15 142.3 289.15 125.35 265.25 124.9 264.6 124.85 263.9 124.85 239.85 124.85 222.7 141.35
M 234.4 153.7
Q 234.45 153.65 234.5 153.6 234.55 153.5 234.65 153.45
L 234.75 153.35
Q 234.75 153.3 234.8 153.3 234.85 153.25 234.9 153.2
L 234.65 153.4
Q 246.85 141.8 263.9 141.85 264.6 141.85 265.25 141.9 282.1 142.35 294.1 154.3 306.55 166.8 306.55 184.5 306.55 184.6 306.55 184.7
L 306.5 184.7
Q 306.55 184.85 306.55 185 306.55 185.05 306.55 185.1 306.55 185.25 306.55 185.4 306.55 185.55 306.55 185.65
L 306.55 185.8
Q 306.5 186.6 306.45 187.35 306.45 187.5 306.45 187.65 306.45 187.7 306.45 187.75 306.45 187.85 306.45 187.95
L 306.45 188.2
Q 306.45 188.25 306.45 188.3
L 306.45 188.5
Q 306.45 188.6 306.45 188.65
L 306.45 188.95
Q 305.1 204 294.1 215
L 294.1 214.95
Q 293.75 215.35 293.4 215.7 293.35 215.75 293.3 215.8 293.25 215.9 293.15 215.95
L 293.05 216.05
Q 293.05 216.1 293 216.1 292.95 216.15 292.9 216.2
L 293.15 216
Q 280.95 227.6 263.9 227.55 263.2 227.55 262.55 227.5 245.7 227.05 233.7 215.1 221.25 202.6 221.25 184.9 221.25 184.8 221.25 184.7
L 221.3 184.7
Q 221.25 184.55 221.25 184.4 221.25 184.35 221.25 184.3 221.25 184.15 221.25 184 221.25 183.85 221.25 183.75
L 221.25 183.6
Q 221.3 182.8 221.35 182.05 221.35 181.9 221.35 181.75 221.35 181.7 221.35 181.65 221.35 181.55 221.35 181.45
L 221.35 181.2
Q 221.35 181.15 221.35 181.1
L 221.35 180.9
Q 221.35 180.8 221.35 180.75
L 221.35 180.45
Q 222.7 165.4 233.7 154.4
L 233.7 154.45
Q 234.05 154.05 234.4 153.7 Z"/>
</g>
</defs>

<g transform="matrix( 0.9473114013671875, 0, 0, 0.947357177734375, 0,0) ">
<g transform="matrix( 1, 0, 0, 1, 0,0) ">
<use xlink:href="#dop_0_Layer0_1_FILL"/>
</g>
</g>
</svg>
